<svg xmlns="http://www.w3.org/2000/svg" viewBox="0 0 16 16">
  <path fill-rule="evenodd" clip-rule="evenodd" d="M8.70708 8.00005L13.3536 3.35355C13.5488 3.15829 13.5488 2.84171 13.3536 2.64645C13.1583 2.45118 12.8417 2.45118 12.6465 2.64645L7.99997 7.29294L3.35349 2.64646C3.15823 2.4512 2.84165 2.4512 2.64639 2.64646C2.45112 2.84172 2.45112 3.1583 2.64639 3.35357L7.29286 8.00005L2.64646 12.6464C2.4512 12.8417 2.4512 13.1583 2.64646 13.3536C2.84173 13.5488 3.15831 13.5488 3.35357 13.3536L7.99997 8.70715L12.6464 13.3536C12.8416 13.5488 13.1582 13.5488 13.3535 13.3536C13.5488 13.1583 13.5488 12.8417 13.3535 12.6465L8.70708 8.00005Z" />
</svg>
