<svg xmlns="http://www.w3.org/2000/svg" viewBox="0 0 20 20">
  <path opacity="0.25" fill="#FFFFFF" d="M10,20c-2.7,0-5.2-1-7.1-2.9C1,15.2,0,12.7,0,10c0-2.7,1-5.2,2.9-7.1S7.3,0,10,0c2.7,0,5.2,1,7.1,2.9C19,4.8,20,7.3,20,10c0,2.7-1,5.2-2.9,7.1C15.2,19,12.7,20,10,20z M10,2C7.9,2,5.9,2.8,4.3,4.3C2.9,5.8,2,7.9,2,10c0,2.1,0.8,4.1,2.3,5.7C5.9,17.2,7.9,18,10,18s4.1-0.8,5.7-2.3c1.5-1.5,2.3-3.5,2.3-5.7c0-2.1-0.9-4.2-2.3-5.7C14.1,2.8,12.1,2,10,2z" />
  <path fill="#FFFFFF" d="M1,11c-0.6,0-1-0.4-1-1c0-2.1,0.7-4.2,1.9-5.9c1.2-1.7,3-3,5-3.6c2-0.7,4.2-0.7,6.2,0c2,0.7,3.8,1.9,5,3.6c0.3,0.4,0.2,1.1-0.2,1.4c-0.4,0.3-1.1,0.2-1.4-0.2c-1-1.4-2.4-2.4-4-2.9s-3.3-0.5-4.9,0s-3,1.5-4,2.9C2.5,6.7,2,8.3,2,10C2,10.6,1.6,11,1,11z" />
</svg>
