<svg viewBox="0 0 16 16" xmlns="http://www.w3.org/2000/svg">
  <path fill-rule="evenodd" clip-rule="evenodd" d="M8 2.5C4.96243 2.5 2.5 4.96243 2.5 8C2.5 9.38206 3.00976 10.6451 3.85151 11.6112C4.17583 11.0767 4.64518 10.6163 5.21644 10.2634C6.02437 9.76441 7.00272 9.5 8.00014 9.5C8.99755 9.5 9.9759 9.76441 10.7838 10.2634C11.355 10.6162 11.8243 11.0766 12.1486 11.611C12.9903 10.6449 13.5 9.38197 13.5 8C13.5 4.96243 11.0376 2.5 8 2.5ZM11.4 12.3235C11.1711 11.86 10.7833 11.4384 10.2583 11.1142C9.61982 10.7198 8.82592 10.5 8.00014 10.5C7.17435 10.5 6.38045 10.7198 5.74194 11.1142C5.21696 11.4385 4.82913 11.86 4.60017 12.3236C5.53588 13.0604 6.71661 13.5 8 13.5C9.28348 13.5 10.4643 13.0604 11.4 12.3235ZM1.5 8C1.5 4.41015 4.41015 1.5 8 1.5C11.5899 1.5 14.5 4.41015 14.5 8C14.5 11.5899 11.5899 14.5 8 14.5C4.41015 14.5 1.5 11.5899 1.5 8ZM8 5.16663C7.17157 5.16663 6.5 5.8382 6.5 6.66663C6.5 7.49505 7.17157 8.16663 8 8.16663C8.82843 8.16663 9.5 7.49505 9.5 6.66663C9.5 5.8382 8.82843 5.16663 8 5.16663ZM5.5 6.66663C5.5 5.28591 6.61929 4.16663 8 4.16663C9.38071 4.16663 10.5 5.28591 10.5 6.66663C10.5 8.04734 9.38071 9.16663 8 9.16663C6.61929 9.16663 5.5 8.04734 5.5 6.66663Z"/>
</svg>
